<svg xmlns="http://www.w3.org/2000/svg" xmlns:xlink="http://www.w3.org/1999/xlink" version="1.1"
     width="3162.1621621621625" height="1079.051254611338" viewBox="0 0 3162.1621621621625 1079.051254611338">

    <g transform="scale(8.108108108108109) translate(10, 10)">
        <defs id="SvgjsDefs1035"/>
        <g id="SvgjsG1036" featureKey="hmhgWD-0"
           transform="matrix(1.233149240298706,0,0,1.233149240298706,-12.028897043064825,4.442543056074834)"
           fill="#fff">
            <path xmlns="http://www.w3.org/2000/svg"
                  d="M48.3,88.1c-8.5,0-16.7-3.7-22.3-10.6c-4.4-5.4-8.3-10-11.6-13.8c-3.7-4.2-5.3-9.7-4.4-15.2c0.9-5.5,4.1-10.3,9-13.1h0  l39-22.7c5.3-3.1,11.7-3.3,17.2-0.8c5.5,2.6,9.4,7.7,10.4,13.7l5,30.4c1.3,7.9-2.6,15.7-9.7,19.4c-5.1,2.7-12,6-20.4,9.9  C56.6,87.2,52.4,88.1,48.3,88.1z M20.9,38.8c-3.8,2.2-6.3,5.9-7,10.2c-0.7,4.3,0.6,8.7,3.5,11.9c3.4,3.8,7.3,8.5,11.7,13.9  c7.2,8.8,19.4,11.6,29.7,6.8c8.3-3.9,15.1-7.2,20.2-9.9c5.6-2.9,8.6-9,7.6-15.2l-5-30.4c-0.8-4.8-3.8-8.7-8.1-10.7  c-4.4-2.1-9.3-1.8-13.5,0.6L20.9,38.8L20.9,38.8z"/>
        </g>
        <g id="SvgjsG1037" featureKey="1RRcwp-0"
           transform="matrix(3.449227576389212,0,0,3.449227576389212,115.51600349280608,10.1324483705326)" fill="#fff">
            <path d="M6.08 20 l-4.78 0 l0 -14.24 l4.78 0 c4.02 0 7.3 3.2 7.3 7.12 s-3.28 7.12 -7.3 7.12 z M3.96 17.38 l2.12 0 c2.56 0 4.64 -2.02 4.64 -4.5 s-2.08 -4.5 -4.64 -4.5 l-2.12 0 l0 9 z M19.54 20.22 c-1.16 0 -2.24 -0.42 -3.02 -1.2 c-0.82 -0.78 -1.26 -1.84 -1.26 -2.98 l0 -5.2 l2.52 0 l0 5.2 c0 0.94 0.78 1.7 1.76 1.7 s1.78 -0.76 1.78 -1.7 l0 -5.2 l2.52 0 l0 5.2 c0 1.12 -0.46 2.18 -1.28 2.98 c-0.8 0.78 -1.86 1.2 -3.02 1.2 z M41.239999999999995 20 l-2.5 0 l0 -4.9 c0 -1.06 -0.9 -2 -1.94 -2 c-1.08 0 -1.96 0.92 -1.96 2 l0 4.9 l-2.5 0 l0 -4.9 c0 -1.08 -0.88 -2 -1.94 -2 s-1.94 0.94 -1.94 2 l0 4.9 l-2.5 0 l0 -9.16 l2.5 0 l0 0.66 c0.62 -0.62 1.28 -0.84 1.94 -0.84 c0.58 0 1.16 0.12 1.72 0.36 c0.52 0.24 1 0.58 1.44 1 c0 0.02 0.02 0.02 0.04 0.04 l0.04 -0.04 c0.42 -0.42 0.9 -0.76 1.44 -1 c0.56 -0.24 1.14 -0.36 1.72 -0.36 c1.18 0 2.3 0.46 3.14 1.28 c0.84 0.86 1.3 1.98 1.3 3.16 l0 4.9 z M58.36 20 l-2.5 0 l0 -4.9 c0 -1.06 -0.9 -2 -1.94 -2 c-1.08 0 -1.96 0.92 -1.96 2 l0 4.9 l-2.5 0 l0 -4.9 c0 -1.08 -0.88 -2 -1.94 -2 s-1.94 0.94 -1.94 2 l0 4.9 l-2.5 0 l0 -9.16 l2.5 0 l0 0.66 c0.62 -0.62 1.28 -0.84 1.94 -0.84 c0.58 0 1.16 0.12 1.72 0.36 c0.52 0.24 1 0.58 1.44 1 c0 0.02 0.02 0.02 0.04 0.04 l0.04 -0.04 c0.42 -0.42 0.9 -0.76 1.44 -1 c0.56 -0.24 1.14 -0.36 1.72 -0.36 c1.18 0 2.3 0.46 3.14 1.28 c0.84 0.86 1.3 1.98 1.3 3.16 l0 4.9 z M63.02 25.32 l-2.62 0 l2.18 -5.3 l-3.66 -9.18 l2.68 0 l2.28 5.7 l2.32 -5.7 l2.66 0 z M73.53999999999999 20 l-2.6 0 l0 -9.16 l2.6 0 l0 9.16 z M72.24 9.74 c-0.86 0 -1.56 -0.7 -1.56 -1.54 c0 -0.42 0.16 -0.8 0.46 -1.08 c0.3 -0.3 0.68 -0.46 1.1 -0.46 c0.84 0 1.54 0.7 1.54 1.54 s-0.7 1.54 -1.54 1.54 z"/>
        </g>
    </g>
</svg>
	