<?xml version="1.0" encoding="utf-8"?>
<svg viewBox="0 0 1140 1024" xmlns="http://www.w3.org/2000/svg">
  <path d="M1089.726017 1023.998652h-1044.896583A44.492371 44.492371 0 0 1 0 979.506281V62.019668A62.019668 62.019668 0 0 1 62.019668 0h805.58156l273.021365 253.134624v719.630389a51.233639 51.233639 0 0 1-50.896576 51.233639z" p-id="3303" style="fill: rgb(75, 75, 75);"/>
  <path d="M878.050193 273.358429l262.5724-20.223805L867.601228 0l-18.538488 244.370975a28.987454 28.987454 0 0 0 28.987453 28.987454z" p-id="3304" style="fill: rgb(45, 45, 45);"/>
  <path d="M896.588681 253.134624h244.033912L867.601228 0v224.14717a28.65039 28.65039 0 0 0 28.987453 28.987454z" p-id="3305" style="fill: rgb(96, 96, 96);"/>
  <path d="M 551.155 607.775 L 567.93 607.775 L 565.75 627.21 L 549.032 627.21 L 551.155 607.775 Z M 692.781 498.743 L 692.781 742.223 C 692.212 757.6 683.967 771.346 669.485 780.479 L 447.049 902.218 C 434.235 909.233 413.266 909.233 400.452 902.218 L 178.02 780.479 C 164.52 772.089 155.718 758.56 154.721 742.223 L 154.721 498.743 C 154.721 484.716 165.205 467.5 178.018 460.488 L 400.454 338.75 C 413.266 331.735 434.236 331.735 447.05 338.75 L 669.485 460.488 C 682.94 469.098 692.262 483.985 692.782 498.743 L 692.781 498.743 Z M 579.074 705.542 L 501.455 662.965 C 449.678 741.537 335.328 703.14 334.075 620.485 C 338.249 530.8 454.594 504.531 501.451 577.999 L 579.069 535.421 C 477.914 381.158 243.345 454.465 244.397 620.484 C 248.894 799.466 489.928 852.248 579.074 705.541 L 579.074 705.542 Z M 597.606 594.242 L 584.298 594.242 L 586.697 572.277 L 571.915 572.277 L 569.45 594.242 L 552.633 594.242 L 555.032 572.277 L 540.249 572.277 L 537.785 594.242 L 523.693 594.242 L 523.693 607.775 L 536.267 607.775 L 534.086 627.21 L 519.554 627.21 L 519.554 640.743 L 532.567 640.743 L 529.871 664.766 L 544.931 664.766 L 547.555 640.743 L 564.231 640.743 L 561.536 664.766 L 576.597 664.766 L 579.22 640.743 L 593.467 640.743 L 593.467 627.21 L 580.698 627.21 L 582.819 607.775 L 597.606 607.775 L 597.606 594.242 Z" p-id="13363" style="fill: rgb(255, 255, 255);"/>
</svg>