<?xml version="1.0" encoding="utf-8"?>
<svg viewBox="0 0 1140 1024" xmlns="http://www.w3.org/2000/svg">
  <path d="M1089.726017 1023.998652h-1044.896583A44.492371 44.492371 0 0 1 0 979.506281V62.019668A62.019668 62.019668 0 0 1 62.019668 0h805.58156l273.021365 253.134624v719.630389a51.233639 51.233639 0 0 1-50.896576 51.233639z" p-id="3303" style="fill: rgb(75, 75, 75);"/>
  <path d="M878.050193 273.358429l262.5724-20.223805L867.601228 0l-18.538488 244.370975a28.987454 28.987454 0 0 0 28.987453 28.987454z" p-id="3304" style="fill: rgb(45, 45, 45);"/>
  <path d="M896.588681 253.134624h244.033912L867.601228 0v224.14717a28.65039 28.65039 0 0 0 28.987453 28.987454z" p-id="3305" style="fill: rgb(96, 96, 96);"/>
  <g transform="matrix(0.557226, 0, 0, 0.576206, -114.015404, 356.339935)" style="">
    <path d="M 1381.859 744.525 C 1381.757 568.403 1381.555 392.28 1382.062 216.055 C 1381.362 198.799 1382.579 179.715 1372.13 164.681 C 1357.218 154.428 1338.35 155.646 1321.195 154.936 C 1219.65 155.443 1118.105 155.24 1016.569 155.24 L 1016.569 74.031 L 956.312 74.031 C 800.697 101.541 644.98 128.238 489.264 155.341 L 489.264 865.821 C 644.067 892.925 798.972 918.912 953.583 947.031 L 1016.58 947.031 L 1016.58 855.671 C 1121.777 855.468 1226.964 855.975 1332.07 855.671 C 1349.011 854.96 1374.372 854.452 1378.43 833.338 C 1384.588 804.214 1381.352 774.065 1381.859 744.525 Z M 788.006 669.417 C 770.761 627.087 749.772 586.177 737.386 541.908 C 723.599 583.132 703.909 622.011 688.094 662.403 C 665.878 662.098 643.651 661.184 621.445 660.271 C 647.517 609.211 672.675 557.744 699.557 506.988 C 676.732 454.71 651.666 403.446 628.141 351.472 C 650.458 350.152 672.766 348.833 695.094 347.615 C 710.209 387.306 726.744 426.49 739.232 467.195 C 752.612 424.053 772.607 383.449 789.741 341.727 C 812.667 340.103 835.695 338.682 858.723 337.565 C 831.637 393.092 804.45 448.619 776.868 503.943 C 804.765 560.789 833.27 617.23 861.258 674.076 C 836.791 672.656 812.454 671.143 788.006 669.417 Z M 1351.324 825.227 L 1016.559 825.227 L 1016.559 764.321 L 1097.714 764.321 L 1097.714 693.263 L 1016.559 693.263 L 1016.559 652.658 L 1097.714 652.658 L 1097.714 581.6 L 1016.559 581.6 L 1016.559 540.996 L 1097.714 540.996 L 1097.714 469.938 L 1016.559 469.938 L 1016.559 429.331 L 1097.714 429.331 L 1097.714 358.273 L 1016.559 358.273 L 1016.559 317.668 L 1097.714 317.668 L 1097.714 246.611 L 1016.559 246.611 L 1016.559 185.704 L 1351.324 185.704 L 1351.324 825.227 Z" fill="#ffffff" p-id="6284"/>
    <path d="M 1138.264 318.129 L 1280.264 318.129 L 1280.264 247.031 L 1138.264 247.031 L 1138.264 318.129 Z M 1138.264 429.855 L 1280.264 429.855 L 1280.264 358.756 L 1138.264 358.756 L 1138.264 429.855 Z M 1138.264 541.58 L 1280.264 541.58 L 1280.264 470.482 L 1138.264 470.482 L 1138.264 541.58 Z M 1138.264 653.306 L 1280.264 653.306 L 1280.264 582.207 L 1138.264 582.207 L 1138.264 653.306 Z M 1138.264 765.031 L 1280.264 765.031 L 1280.264 693.933 L 1138.264 693.933 L 1138.264 765.031 Z" fill="#ffffff" p-id="6285"/>
    <path d="M 584.264 283.031 L 900.264 283.031 L 900.264 730.031 L 584.264 730.031 L 584.264 283.031 Z" p-id="6286" fill="#ffffff"/>
    <path d="M 723.409 671.764 C 756.182 673.586 783.226 666.434 804.542 650.126 C 825.858 633.574 841.099 607.212 850.264 571.061 L 790.482 549.479 C 785.344 573.347 776.872 590.658 765.069 601.407 C 753.265 612.069 739.17 617.065 722.784 616.457 C 700.565 615.634 682.512 606.489 668.626 589.141 C 654.739 571.954 647.796 543.686 647.796 504.217 C 647.796 467.02 654.843 439.955 668.938 422.903 C 683.033 405.689 701.398 396.602 724.034 395.763 C 740.42 395.156 754.342 399.497 765.798 408.843 C 777.255 418.262 784.788 431.424 788.398 448.305 L 849.431 431.202 C 842.487 404.706 832.072 384.664 818.186 371.082 C 794.856 348.389 764.514 338.218 727.158 340.295 C 684.388 342.674 649.878 358.978 623.633 388.818 C 597.387 418.138 584.264 458.016 584.264 508.841 C 584.264 556.89 597.318 595.173 623.424 624.074 C 649.532 653.484 682.86 669.509 723.409 671.764 Z" p-id="6287" style="fill: rgb(75, 75, 75);"/>
  </g>
</svg>