<?xml version="1.0" encoding="utf-8"?>
<svg viewBox="0 0 1140 1024" xmlns="http://www.w3.org/2000/svg">
  <path d="M1089.726017 1023.998652h-1044.896583A44.492371 44.492371 0 0 1 0 979.506281V62.019668A62.019668 62.019668 0 0 1 62.019668 0h805.58156l273.021365 253.134624v719.630389a51.233639 51.233639 0 0 1-50.896576 51.233639z" p-id="3303" style="fill: rgb(75, 75, 75);"/>
  <path d="M878.050193 273.358429l262.5724-20.223805L867.601228 0l-18.538488 244.370975a28.987454 28.987454 0 0 0 28.987453 28.987454z" p-id="3304" style="fill: rgb(45, 45, 45);"/>
  <path d="M896.588681 253.134624h244.033912L867.601228 0v224.14717a28.65039 28.65039 0 0 0 28.987453 28.987454z" p-id="3305" style="fill: rgb(96, 96, 96);"/>
  <path d="M 142.108 807.657 L 213.685 324.852 L 304.187 474.249 L 340.051 400.753 L 557.59 808.5 L 142.108 807.657 Z" p-id="2407" style="fill: rgb(219, 212, 201);"/>
  <path d="M 340.188 918.893 L 557.388 807.479 L 482.519 436.104 L 141.906 806.636 L 340.188 918.893 Z" p-id="2408" style="fill: rgb(255, 255, 255);"/>
  <path d="M 306.007 470.334 L 143.936 803.734 L 363.471 564.916 L 306.007 470.334 Z" p-id="2409" style="fill: rgb(183, 174, 164);"/>
</svg>