<?xml version="1.0" encoding="utf-8"?>
<svg t="1684316509574" class="icon" viewBox="0 0 1140 1024" version="1.1" p-id="1881" width="222.65625" height="200" xmlns="http://www.w3.org/2000/svg">
  <path d="M 1088.944 1024.107 L 44.047 1024.107 C 19.343 1024.294 -0.783 1004.32 -0.782 979.615 L -0.782 62.128 C -0.782 27.876 26.985 0.109 61.238 0.109 L 866.819 0.109 L 1139.841 253.243 L 1139.841 972.874 C 1139.841 1001.038 1117.108 1023.922 1088.944 1024.107 Z" p-id="1882" style="fill: rgb(75, 75, 75);"/>
  <path d="M878.050193 273.358429l262.5724-20.223805L867.601228 0l-18.538488 244.370975a28.987454 28.987454 0 0 0 28.987453 28.987454z" p-id="1883" style="fill: rgb(45, 45, 45);"/>
  <path d="M896.588681 253.134624h244.033912L867.601228 0v224.14717a28.65039 28.65039 0 0 0 28.987453 28.987454z" p-id="1884" style="fill: rgb(96, 96, 96);"/>
  <path d="M 403.17 533.792 C 433.901 567.262 394.67 598.802 394.67 598.802 C 394.67 598.802 471.17 560.182 436.516 511.264 C 403.824 466.208 378.324 443.68 514.978 365.154 C 514.978 365.797 300.516 419.221 403.17 533.792" p-id="14365" style="fill: rgb(201, 201, 201);"/>
  <path d="M 436.516 240.284 C 436.516 240.284 501.247 304.006 375.054 402.486 C 274.362 481.656 352.17 526.712 375.054 578.848 C 315.554 526.068 273.054 479.725 301.823 436.6 C 343.016 372.878 462.67 341.982 436.516 240.284" p-id="14366" style="fill: rgb(201, 201, 201);"/>
  <path d="M 507.132 713.373 C 624.17 653.513 569.901 594.94 532.632 603.307 C 522.824 605.238 518.901 606.526 518.901 606.526 C 518.901 606.526 522.17 601.376 529.362 599.445 C 604.555 573.699 662.094 675.397 505.17 716.591 C 504.516 716.591 506.478 714.66 507.132 713.373 M 291.362 737.832 C 291.362 737.832 267.169 751.349 308.362 756.498 C 357.4 761.647 383.554 761.647 437.824 751.349 C 437.824 751.349 452.862 761.004 471.824 768.084 C 349.554 818.933 195.246 764.866 291.362 737.832 M 276.323 670.892 C 276.323 670.892 248.862 690.845 291.362 694.707 C 344.324 699.856 386.824 701.143 458.093 686.339 C 458.093 686.339 468.555 696.638 484.247 701.787 C 336.477 744.912 171.054 705.005 276.323 670.892" p-id="14367" style="fill: rgb(250, 252, 255);"/>
  <path d="M 564.67 788.037 C 564.67 788.037 582.324 802.842 544.401 813.784 C 473.132 835.668 250.169 842.105 188.054 815.071 C 165.823 805.416 208.323 792.543 220.746 789.325 C 234.477 786.106 242.977 787.394 242.977 787.394 C 218.131 769.371 82.131 820.22 174.323 835.024 C 423.439 874.288 629.401 817.002 564.67 788.037 M 302.477 600.733 C 302.477 600.733 188.708 627.766 261.939 636.134 C 293.323 639.996 355.439 639.352 412.324 634.203 C 459.401 630.341 506.478 621.973 506.478 621.973 C 506.478 621.973 489.478 629.054 477.708 637.421 C 361.977 667.673 139.015 654.156 203.092 622.617 C 259.323 597.514 302.477 600.733 302.477 600.733" p-id="14368" style="fill: rgb(255, 255, 255);"/>
  <path d="M 314.247 875.575 C 426.708 882.655 599.324 871.713 603.901 818.933 C 603.901 818.933 595.401 838.886 510.401 854.334 C 414.285 871.713 295.285 869.782 225.323 858.196 C 226.631 858.84 241.016 871.069 314.247 875.575" p-id="14369" style="fill: rgb(255, 255, 255);"/>
</svg>