<?xml version="1.0" standalone="no"?><!DOCTYPE svg PUBLIC "-//W3C//DTD SVG 1.1//EN"
        "http://www.w3.org/Graphics/SVG/1.1/DTD/svg11.dtd">
<svg t="1684315964129" class="icon" viewBox="0 0 1140 1024" version="1.1" xmlns="http://www.w3.org/2000/svg" p-id="1172"
     xmlns:xlink="http://www.w3.org/1999/xlink" width="222.65625" height="200">
    <path d="M1089.726017 1023.998652h-1044.896583A44.492371 44.492371 0 0 1 0 979.506281V62.019668A62.019668 62.019668 0 0 1 62.019668 0h805.58156l273.021365 253.134624v719.630389a51.233639 51.233639 0 0 1-50.896576 51.233639z"
          fill="#4B4B4B" p-id="1173"></path>
    <path d="M878.050193 273.358429l262.5724-20.223805L867.601228 0l-18.538488 244.370975a28.987454 28.987454 0 0 0 28.987453 28.987454z"
          fill="#2D2D2D" p-id="1174"></path>
    <path d="M896.588681 253.134624h244.033912L867.601228 0v224.14717a28.65039 28.65039 0 0 0 28.987453 28.987454z"
          fill="#606060" p-id="1175"></path>
    <path d="M163.475756 924.564945v32.021024a67.412683 67.412683 0 0 1-54.941337-7.752459 57.637844 57.637844 0 0 1-18.201424-47.863004v-47.188878c0-18.875551-8.089522-28.313327-23.594439-28.313327v-30.672771c15.504917 0 23.594439-9.437776 23.594439-28.313327v-47.188878a57.637844 57.637844 0 0 1 18.201424-47.525941 67.412683 67.412683 0 0 1 54.941337-8.089522v32.021025a25.953883 25.953883 0 0 0-23.257376 1.685317 33.706341 33.706341 0 0 0-6.741268 23.931502v45.166497a91.344185 91.344185 0 0 1-2.696507 27.976264 30.672771 30.672771 0 0 1-20.897932 15.84198 50.559512 50.559512 0 0 1 13.482537 6.067142 19.886741 19.886741 0 0 1 7.415395 10.111902 54.941336 54.941336 0 0 1 2.359444 10.448966V898.948125c0 12.134283 0 19.549678 5.730078 22.920312s12.134283 4.044761 24.605629 2.696508zM387.285863 686.261111v134.825366a106.174975 106.174975 0 0 1-27.976264 76.176331 101.119024 101.119024 0 0 1-75.839268 29.324517 104.489658 104.489658 0 0 1-75.165141-26.965073 101.119024 101.119024 0 0 1-28.313327-75.839268h43.818244a53.256019 53.256019 0 0 0 59.660224 61.008478 54.941336 54.941336 0 0 0 44.155307-17.527298 67.412683 67.412683 0 0 0 15.167854-46.177687v-93.366566H271.673112v-41.4588zM557.502887 773.223472l-22.920312 26.965073a58.649034 58.649034 0 0 0-41.121737-14.83079c-20.223805 0-30.335707 5.730078-30.335707 16.516107s10.111902 16.853171 31.009834 18.201424l19.549678 2.022381a122.016956 122.016956 0 0 1 18.875551 5.055951 57.30078 57.30078 0 0 1 16.853171 9.100712 46.177688 46.177688 0 0 1 11.123092 14.83079 51.570702 51.570702 0 0 1 4.718888 22.246186 49.211258 49.211258 0 0 1-18.875551 39.099356 79.546966 79.546966 0 0 1-52.581892 15.504917 130.780605 130.780605 0 0 1-41.4588-6.067142 84.93998 84.93998 0 0 1-35.391659-23.594439l20.223805-29.324517a62.019668 62.019668 0 0 0 25.616819 16.179044 83.254663 83.254663 0 0 0 31.683961 7.078332 33.706341 33.706341 0 0 0 20.897932-5.393015 16.516107 16.516107 0 0 0 9.100712-14.493727 13.482537 13.482537 0 0 0-7.752458-12.471346 65.390302 65.390302 0 0 0-25.279756-5.055951 130.780605 130.780605 0 0 1-24.268566-3.707698 108.871483 108.871483 0 0 1-21.909122-8.426585 41.4588 41.4588 0 0 1-16.516107-15.84198 49.211258 49.211258 0 0 1 0-47.863005 49.548322 49.548322 0 0 1 17.190234-16.179044 101.119024 101.119024 0 0 1 22.583248-8.426585 103.478468 103.478468 0 0 1 88.647678 18.875551zM577.389628 956.585969v-32.021024a33.706341 33.706341 0 0 0 24.268566-2.696508 31.683961 31.683961 0 0 0 5.730078-22.920312v-48.537131-13.482537a37.414039 37.414039 0 0 1 2.359444-10.448966 21.234995 21.234995 0 0 1 7.078332-10.111902 52.918956 52.918956 0 0 1 13.8196-6.067142 37.414039 37.414039 0 0 1-13.8196-6.067141 21.234995 21.234995 0 0 1-7.078332-10.111903 33.706341 33.706341 0 0 1-2.359444-10.448965V721.315706a31.346898 31.346898 0 0 0-7.078332-23.931502c-4.381824-4.044761-12.134283-4.381824-22.920312-1.685317v-32.021025a67.412683 67.412683 0 0 1 54.941337 8.089522 57.637844 57.637844 0 0 1 18.201424 47.525941v47.188878c0 18.875551 7.752459 28.313327 23.594439 28.313327v30.672771c-15.84198 0-23.594439 9.437776-23.594439 28.313327v47.188878a57.637844 57.637844 0 0 1-18.201424 47.863004 67.412683 67.412683 0 0 1-54.941337 7.752459z"
          fill="#FFFFFF" p-id="1176"></path>
</svg>