<?xml version="1.0" encoding="utf-8"?>
<svg t="1684316509574" class="icon" viewBox="0 0 1140 1024" version="1.1" p-id="1881" width="222.65625" height="200" xmlns="http://www.w3.org/2000/svg">
  <path d="M1089.726017 1023.998652h-1044.896583A44.492371 44.492371 0 0 1 0 979.506281V62.019668A62.019668 62.019668 0 0 1 62.019668 0h805.58156l273.021365 253.134624v719.630389a51.233639 51.233639 0 0 1-50.896576 51.233639z" p-id="1882" style="fill: rgb(75, 75, 75);"/>
  <path d="M878.050193 273.358429l262.5724-20.223805L867.601228 0l-18.538488 244.370975a28.987454 28.987454 0 0 0 28.987453 28.987454z" p-id="1883" style="fill: rgb(45, 45, 45);"/>
  <path d="M896.588681 253.134624h244.033912L867.601228 0v224.14717a28.65039 28.65039 0 0 0 28.987453 28.987454z" p-id="1884" style="fill: rgb(96, 96, 96);"/>
  <path d="M 234.83 448.98 L 285.221 448.98 L 285.221 496.389 L 234.83 496.389 L 234.83 614.915 C 234.83 641.098 212.269 662.324 184.439 662.324 C 212.269 662.324 234.83 683.55 234.83 709.734 L 234.83 828.259 L 285.221 828.259 L 285.221 875.669 L 234.83 875.669 C 207.871 869.269 184.439 854.335 184.439 828.259 L 184.439 733.439 C 184.439 707.256 161.878 686.029 134.048 686.029 L 108.852 686.029 L 108.852 638.619 L 134.048 638.619 C 161.878 638.619 184.439 617.393 184.439 591.209 L 184.439 496.389 C 184.439 470.206 207 448.98 234.83 448.98 M 587.568 448.98 C 615.398 448.98 637.959 470.206 637.959 496.389 L 637.959 591.209 C 637.959 617.393 660.52 638.619 688.351 638.619 L 713.546 638.619 L 713.546 686.029 L 688.351 686.029 C 660.52 686.029 637.959 707.256 637.959 733.439 L 637.959 828.259 C 637.959 854.443 615.398 875.669 587.568 875.669 L 537.177 875.669 L 537.177 828.259 L 587.568 828.259 L 587.568 709.734 C 587.568 683.55 610.129 662.324 637.959 662.324 C 610.129 662.324 587.568 641.098 587.568 614.915 L 587.568 496.389 L 537.177 496.389 L 537.177 448.98 L 587.568 448.98 M 411.199 733.439 C 425.114 733.439 436.395 744.053 436.395 757.144 C 436.395 770.236 425.114 780.849 411.199 780.849 C 397.284 780.849 386.004 770.236 386.004 757.144 C 386.004 744.053 397.284 733.439 411.199 733.439 M 310.417 733.439 C 324.332 733.439 335.612 744.053 335.612 757.144 C 335.612 770.236 324.332 780.849 310.417 780.849 C 296.501 780.849 285.221 770.236 285.221 757.144 C 285.221 744.053 296.501 733.439 310.417 733.439 M 511.982 733.439 C 525.897 733.439 537.177 744.053 537.177 757.144 C 537.177 770.236 525.897 780.849 511.982 780.849 C 498.067 780.849 486.786 770.236 486.786 757.144 C 486.786 744.053 498.067 733.439 511.982 733.439 Z" fill="#ffffff" p-id="7356" style=""/>
</svg>