<?xml version="1.0" encoding="utf-8"?>
<svg t="1684316509574" class="icon" viewBox="0 0 1140 1024" version="1.1" p-id="1881" width="222.65625" height="200" xmlns="http://www.w3.org/2000/svg">
  <path d="M1089.726017 1023.998652h-1044.896583A44.492371 44.492371 0 0 1 0 979.506281V62.019668A62.019668 62.019668 0 0 1 62.019668 0h805.58156l273.021365 253.134624v719.630389a51.233639 51.233639 0 0 1-50.896576 51.233639z" p-id="1882" style="fill: rgb(75, 75, 75);"/>
  <path d="M878.050193 273.358429l262.5724-20.223805L867.601228 0l-18.538488 244.370975a28.987454 28.987454 0 0 0 28.987453 28.987454z" p-id="1883" style="fill: rgb(45, 45, 45);"/>
  <path d="M896.588681 253.134624h244.033912L867.601228 0v224.14717a28.65039 28.65039 0 0 0 28.987453 28.987454z" p-id="1884" style="fill: rgb(96, 96, 96);"/>
  <path d="M388.97118 618.848428a845.355042 845.355042 0 0 1 89.658868-55.615463c33.706341-14.156663 65.053239-25.953883 98.75958-38.088166s67.412683-21.909122 101.119024-30.672771 67.412683-15.167854 103.815532-20.223804l-5.393015 10.786029a148.982029 148.982029 0 0 0-30.335707-33.706342 221.450663 221.450663 0 0 0-38.762293-26.965073l-10.448965-5.055951-10.78603-5.055951-12.471346-4.381825-10.786029-5.393014c-15.167854-5.055951-30.335707-9.774839-46.177688-13.482537a448.294341 448.294341 0 0 0-47.188878-9.100712h-11.797219l-12.134283-1.685317-24.60563-3.370634c-16.179044-2.696507-33.706341-5.730078-48.537131-9.774839l-11.79722-3.370634-11.797219-3.707698c-3.707698-1.685317-7.752459-3.033571-11.460156-5.055951l-5.393015-3.370634-2.696507-1.685317h2.696507l5.393015 2.02238 11.797219 3.370634a182.014244 182.014244 0 0 0 23.594439 4.381825c16.179044 2.359444 33.706341 4.044761 48.537132 5.393014H573.007804l24.942692 3.033571c8.089522 0 16.516107 2.696507 24.60563 4.718888a408.183794 408.183794 0 0 1 48.200068 13.145473l11.797219 4.381824 11.460156 5.055952 11.460157 5.393014 11.123092 5.730078c7.415395 4.044761 14.493727 8.763649 21.572059 13.482537a215.383522 215.383522 0 0 1 19.886741 15.84198 165.8352 165.8352 0 0 1 33.706341 39.43642l5.730079 9.774839h-11.123093a879.398447 879.398447 0 0 0-101.119024 17.527297 1042.53714 1042.53714 0 0 0-101.119025 28.987454 998.381832 998.381832 0 0 0-101.119024 41.4588c-15.84198 7.078332-31.683961 14.83079-47.188878 22.583249l-23.257375 12.471346c-7.752459 4.044761-15.167854 8.426585-22.583249 12.80841z" fill="#FFFFFF" p-id="1885"/>
  <path d="M385.600546 622.219062c11.460156-9.100712 22.246185-18.201424 33.706341-27.976263s20.223805-20.223805 29.324517-31.346898a202.238048 202.238048 0 0 0 13.145473-16.516107c4.044761-6.067141 8.089522-11.797219 11.460156-17.864361s1.685317-3.033571 2.359444-4.718888V518.740594l2.022381-4.718888a29.66158 29.66158 0 0 0 1.685317-5.055951c0-3.370634 2.359444-6.404205 3.370634-9.774839s1.685317-6.741268 2.359444-10.111902 0-7.078332 1.685317-10.448966 0-6.741268 0-10.111903a25.616819 25.616819 0 0 0 0-5.055951v-5.055951a51.570702 51.570702 0 0 0 0-10.111902 120.331639 120.331639 0 0 0-12.80841-38.42523 181.67718 181.67718 0 0 0-11.123093-16.85317 199.541541 199.541541 0 0 0-13.8196-15.167854l-3.707697-3.370634-5.393015-3.707698-1.685317-3.707697-3.707697-4.381825a40.110546 40.110546 0 0 1-6.067142-9.774839 33.706341 33.706341 0 0 1 0-6.067141 9.437776 9.437776 0 0 1 0-3.033571 3.707698 3.707698 0 0 0 0 2.696508v2.02238l3.707698 3.370634 8.089522 6.067142 4.044761 3.03357h2.02238l2.359444 1.685317h1.685317l4.044761 3.707698a142.914888 142.914888 0 0 1 15.504917 16.516107 165.8352 165.8352 0 0 1 12.471346 18.875551 124.713463 124.713463 0 0 1 8.763649 20.897932 103.815532 103.815532 0 0 1 4.381825 22.246185 109.54561 109.54561 0 0 1-4.381825 44.492371c0 3.707698-2.02238 7.078332-3.370634 10.786029l-4.381824 10.111903s-1.685317 3.033571-2.696508 4.718888l-2.359444 4.718887v2.359444a36.739912 36.739912 0 0 0-2.696507 5.055952c-4.044761 6.067141-8.089522 12.134283-12.471346 17.86436s-9.100712 11.123093-13.8196 16.516108a400.094272 400.094272 0 0 1-65.053239 56.626653z" fill="#FFFFFF" p-id="1886"/>
  <path d="M646.487628 505.595121c-6.067141-5.393015-12.80841-10.786029-19.212615-15.84198s-12.80841-10.111902-19.549678-14.830791l-10.448965-7.078331-10.448966-6.067142a286.503902 286.503902 0 0 0-44.829434-21.234995 340.096985 340.096985 0 0 0-47.525942-15.504917c-16.179044-4.381824-14.83079-13.145473 2.022381-10.111902a416.273316 416.273316 0 0 1 49.885385 12.808409 347.51238 347.51238 0 0 1 47.863005 19.549678l11.797219 6.067142 11.123093 6.404205a246.393356 246.393356 0 0 1 22.246185 13.8196 241.337404 241.337404 0 0 1 20.560869 16.179044l9.437775 9.100712" fill="#FFFFFF" p-id="1887"/>
  <path d="M545.368604 368.410312a153.363853 153.363853 0 0 1 8.763649 33.706341 158.082741 158.082741 0 0 1 0 35.728722 41.121737 41.121737 0 0 1 0 8.763649 19.886741 19.886741 0 0 1 0 4.381824v4.381824a101.119024 101.119024 0 0 1-5.393015 17.190234 120.668702 120.668702 0 0 1-8.089522 16.179044c-3.033571 5.055951-6.404205 10.111902-9.774839 14.830791l-11.123093 13.819599-11.460156 13.145474a347.51238 347.51238 0 0 1-25.279756 24.605629 343.467619 343.467619 0 0 1-27.976263 21.572058c-4.718888 3.370634-9.437776 6.741268-14.493727 9.774839l-7.415395 4.718888-7.415395 4.381825 6.741268-5.393015 6.741268-5.393015 13.482537-11.460156c8.763649-7.415395 17.190234-15.167854 25.616819-22.920312s16.179044-16.516107 23.931503-24.942693l5.730078-6.741268 5.730078-6.404205 10.786029-13.482536 9.437776-14.156664c2.696507-5.055951 5.393015-9.774839 7.752458-15.167853a124.039336 124.039336 0 0 0 5.055952-15.841981 17.864361 17.864361 0 0 0 0-4.044761v-4.381824-8.426585a190.440829 190.440829 0 0 0 0-33.706342 238.303834 238.303834 0 0 0-4.381825-33.706341z m81.232283 15.167853V397.397765a98.75958 98.75958 0 0 1 0 13.8196V420.992204a119.994575 119.994575 0 0 1-4.381825 13.145473 155.386234 155.386234 0 0 1-12.134283 24.942693 208.979317 208.979317 0 0 1-15.84198 22.583249l-8.763649 10.448965-4.381824 4.718888-4.381825 5.055951-8.763648 10.111903-4.718888 5.055951-4.718888 5.055951a174.261785 174.261785 0 0 1-20.897932 17.527298l-11.123092 7.752458-5.730078 3.370634-6.067142 3.370635 5.393015-4.044761 5.055951-4.381825 10.111902-9.100712a245.045102 245.045102 0 0 0 18.538488-18.875551l17.190234-20.560868 4.044761-5.393015 4.381825-5.055951 8.763648-10.111903c5.393015-7.078332 10.448966-14.156663 15.167854-21.572058a168.531707 168.531707 0 0 0 11.460156-23.594439 78.198712 78.198712 0 0 0 4.381825-12.471346l2.02238-6.404205v-4.718888c0-4.381824 2.359444-8.763649 3.033571-13.145473a35.728722 35.728722 0 0 0 0-6.404205 12.134283 12.134283 0 0 0 0-3.370634z m91.681248 28.313327a126.735844 126.735844 0 0 1-10.448966 30.672771 129.769414 129.769414 0 0 1-17.527297 27.302136 242.011531 242.011531 0 0 1-21.909122 23.594439c-3.707698 3.707698-7.752459 7.078332-11.79722 10.448966l-6.741268 4.718888a46.177688 46.177688 0 0 1-6.741268 4.381824 46.177688 46.177688 0 0 1 4.381824-6.741268l4.718888-6.404205a125.724653 125.724653 0 0 1 10.786029-12.134283c7.415395-7.415395 14.83079-14.83079 21.572059-22.920312a191.452019 191.452019 0 0 0 18.538488-24.942693c3.033571-4.381824 5.393015-9.100712 8.089522-13.8196s4.718888-9.437776 7.078331-14.156663z" fill="#FFFFFF" p-id="1888"/>
  <path d="M459.417433 551.772809A420.318077 420.318077 0 0 1 518.066467 505.595121a523.122419 523.122419 0 0 1 134.825366-67.412683 423.014585 423.014585 0 0 1 73.479824-17.190234c-23.931502 7.415395-47.525941 15.504917-70.783317 24.605629s-45.840624 18.875551-67.412683 29.661581-44.155307 22.920312-65.390302 35.728722-42.132927 26.62801-62.693795 41.121736z m25.953883-56.28959l7.752459-9.437776 8.426585-8.763649 17.864361-16.85317a469.529336 469.529336 0 0 1 38.088166-30.335708c13.482537-9.437776 27.302137-17.864361 41.4588-25.953883 7.078332-3.707698 14.156663-7.752459 21.572058-11.123092l11.123093-5.055951 11.460156-4.718888-10.111902 7.078331-10.111903 6.741269-19.886741 13.8196c-13.482537 8.763649-26.62801 17.864361-39.773483 27.302136l-39.099356 27.976264-19.212615 14.83079-9.774839 7.078331-9.774839 7.415396z m0-67.412683l3.033571-4.718888a49.548322 49.548322 0 0 1 3.370634-4.381824l7.415395-8.763649a172.239405 172.239405 0 0 1 16.179044-15.167854c5.730078-5.055951 11.460156-9.437776 17.527298-13.8196l9.774839-5.730078 4.718887-2.696507 5.055952-2.696507a49.548322 49.548322 0 0 1-3.370635 4.381824l-4.044761 4.381824-7.752458 7.752459-16.179044 14.83079c-5.730078 4.718888-11.460156 9.437776-17.527297 13.8196l-8.763649 6.741268-4.718888 3.033571-4.718888 3.033571z" fill="#FFFFFF" p-id="1889"/>
  <path d="M476.607667 362.006107a94.714819 94.714819 0 0 1 9.774839 18.201424c0 3.033571 2.696507 6.404205 3.707698 9.437776V394.701258a27.976263 27.976263 0 0 1 0 5.055951 72.131571 72.131571 0 0 1 2.02238 20.897932 33.706341 33.706341 0 0 1 0 10.111902 57.637844 57.637844 0 0 1-3.03357 10.111903v-20.223805a189.429639 189.429639 0 0 0-3.033571-19.212615v-5.055951-4.718888c0-3.370634 0-6.404205-2.359444-9.774839s-3.033571-13.145473-4.381824-19.886741z m12.471347 119.657512h10.786029a59.660224 59.660224 0 0 1 10.448966 5.055951 55.615463 55.615463 0 0 1 16.179044 15.84198 56.963717 56.963717 0 0 1 9.774839 33.706342v11.123092l-2.022381-5.055951-3.370634-3.033571c0-3.370634-2.359444-6.404205-4.044761-9.774839a109.54561 109.54561 0 0 0-9.437776-17.527297 106.512039 106.512039 0 0 0-12.471346-15.167854 77.187522 77.187522 0 0 0-7.752458-7.078331 21.909122 21.909122 0 0 0-4.044761-3.707698l-4.044761-3.370634z m-101.119024 138.870126s-55.2784 37.414039-28.650391 76.850459a141.22957 141.22957 0 0 0 87.636488 52.581892 611.09597 611.09597 0 0 0 119.320449 15.841981s5.055951 0-8.763649-3.707698c0 0-39.436419-5.730078-79.546966-13.8196a235.94439 235.94439 0 0 1-67.412683-24.605629s-70.10919-38.425229-37.414039-80.895219a132.802985 132.802985 0 0 1 28.313327-29.998644" fill="#FFFFFF" p-id="1890"/>
  <path d="M561.884711 765.471013a644.802311 644.802311 0 0 0 40.784673-136.510682 329.985082 329.985082 0 0 0 0-104.489659l10.786029-3.707697a355.601902 355.601902 0 0 1-1.685317 125.050526 389.308243 389.308243 0 0 1-44.49237 119.657512" fill="#FFFFFF" p-id="1891"/>
  <path d="M566.266536 765.471013h-4.044761m-202.238049-101.119024s122.354019-33.706341 158.419805-49.211258a380.544594 380.544594 0 0 0 89.995931-47.525942v7.078332a400.094272 400.094272 0 0 1-120.668702 61.008478s-71.457444 21.572058-127.747034 32.021024z" fill="#FFFFFF" p-id="1892"/>
  <path d="M393.690068 714.574438a786.706008 786.706008 0 0 0 89.321804-144.600205l13.8196-6.404205A259.201765 259.201765 0 0 1 438.182438 666.711433s-31.346898 39.099356-40.110546 51.570702z m149.993219-170.891151a195.159717 195.159717 0 0 1-31.683961 117.298068 596.939306 596.939306 0 0 1-55.615463 87.973551h6.404204a341.108175 341.108175 0 0 0 72.131571-111.230927 237.96677 237.96677 0 0 0 17.864361-96.7372z m-77.187522 205.271619s106.849102-31.346898 116.961005-35.728722v3.370634a471.88878 471.88878 0 0 1-116.961005 33.706342z" fill="#FFFFFF" p-id="1893"/>
  <path d="M587.164467 711.540867A244.708039 244.708039 0 0 1 471.88878 663.677862s-45.166497-33.706341-26.965074-77.861648l-15.167853 3.370634a73.816888 73.816888 0 0 0 21.234995 70.446253 185.384878 185.384878 0 0 0 134.825366 51.907766z m-90.332995-149.319092S512.336389 624.578506 606.714145 640.420487l4.718888-2.022381s-104.489658-33.706341-104.489658-81.569346z" fill="#FFFFFF" p-id="1894"/>
  <path d="M399.420146 718.282135s108.197356-35.728722 132.802985-46.851814a394.364194 394.364194 0 0 0 77.524585-35.728722L606.714145 640.420487a444.24958 444.24958 0 0 1-81.906409 40.784673 891.195667 891.195667 0 0 1-128.421161 39.436419z m154.375043-175.947102a567.951853 567.951853 0 0 0 60.334351 33.706342V573.007804s-52.581893-31.346898-57.30078-33.706342z m15.841981-168.531707a269.650731 269.650731 0 0 1-38.088166-81.906409s-111.905053 37.414039-105.500849 57.30078l13.8196 6.741268h2.359444s-10.786029-10.111902 26.290946-30.335707a452.339102 452.339102 0 0 1 61.008478-27.976263s8.426585 58.986097 28.650391 75.502204z" fill="#FFFFFF" p-id="1895"/>
  <path d="M456.720926 327.625638l27.6392 36.402849h13.482536l-41.121736-40.110546z" fill="#FFFFFF" p-id="1896"/>
  <path d="M543.683287 342.456429s-86.962361-6.067141-83.254663-18.538488h4.381824S539.301462 337.063414 543.683287 337.063414z m-23.931503 23.931502s25.953883-20.560868 26.965074-20.897932v-3.03357a413.239746 413.239746 0 0 1-39.43642 20.223804c-6.067141 1.685317 14.156663 3.707698 14.156663 3.707698z" fill="#FFFFFF" p-id="1897"/>
  <path d="M388.97118 618.848428a845.355042 845.355042 0 0 1 89.658868-55.615463c33.706341-14.156663 65.053239-25.953883 98.75958-38.088166s67.412683-21.909122 101.119024-30.672771 67.412683-15.167854 103.815532-20.223804l-5.393015 10.786029a148.982029 148.982029 0 0 0-30.335707-33.706342 221.450663 221.450663 0 0 0-38.762293-26.965073l-10.448965-5.055951-10.78603-5.055951-12.471346-4.381825-10.786029-5.393014c-15.167854-5.055951-30.335707-9.774839-46.177688-13.482537a448.294341 448.294341 0 0 0-47.188878-9.100712h-11.797219l-12.134283-1.685317-24.60563-3.370634c-16.179044-2.696507-33.706341-5.730078-48.537131-9.774839l-11.79722-3.370634-11.797219-3.707698c-3.707698-1.685317-7.752459-3.033571-11.460156-5.055951l-5.393015-3.370634-2.696507-1.685317h2.696507l5.393015 2.02238 11.797219 3.370634a182.014244 182.014244 0 0 0 23.594439 4.381825c16.179044 2.359444 33.706341 4.044761 48.537132 5.393014H573.007804l24.942692 3.033571c8.089522 0 16.516107 2.696507 24.60563 4.718888a408.183794 408.183794 0 0 1 48.200068 13.145473l11.797219 4.381824 11.460156 5.055952 11.460157 5.393014 11.123092 5.730078c7.415395 4.044761 14.493727 8.763649 21.572059 13.482537a215.383522 215.383522 0 0 1 19.886741 15.84198 165.8352 165.8352 0 0 1 33.706341 39.43642l5.730079 9.774839h-11.123093a879.398447 879.398447 0 0 0-101.119024 17.527297 1042.53714 1042.53714 0 0 0-101.119025 28.987454 998.381832 998.381832 0 0 0-101.119024 41.4588c-15.84198 7.078332-31.683961 14.83079-47.188878 22.583249l-23.257375 12.471346c-7.752459 4.044761-15.167854 8.426585-22.583249 12.80841z" fill="#FFFFFF" p-id="1898"/>
  <path d="M385.600546 622.219062a446.946087 446.946087 0 0 0 61.682604-59.323161c4.381824-5.730078 8.763649-11.123093 12.80841-16.85317a176.621229 176.621229 0 0 0 11.460156-17.864361l2.359444-4.718888v-2.696507l2.022381-4.718888 1.685317-5.055951 3.03357-9.774839c0-3.370634 0-6.741268 2.359444-10.111903s0-6.741268 0-10.111902V450.653785a105.500849 105.500849 0 0 0-11.123092-39.773483 110.219736 110.219736 0 0 0-10.78603-16.853171 144.263141 144.263141 0 0 0-13.482536-14.83079l-3.707698-3.370634L438.182438 370.769755v-2.696507l-3.707697-4.381824a44.155307 44.155307 0 0 1-5.730078-10.448966 17.864361 17.864361 0 0 1 0-6.067142 10.448966 10.448966 0 0 1 0-3.370634 3.707698 3.707698 0 0 0 0 2.696508 4.044761 4.044761 0 0 0 0 1.685317 17.527298 17.527298 0 0 0 3.707697 3.370634l8.089522 5.393014 4.381824 3.033571h4.381825l4.381824 3.707698A128.084097 128.084097 0 0 1 487.73076 404.476097a97.411327 97.411327 0 0 1 8.763649 21.234995 103.478468 103.478468 0 0 1 4.718888 22.583249 117.635131 117.635131 0 0 1-4.718888 44.829434c0 3.707698-2.359444 7.078332-3.707698 10.448966a98.422517 98.422517 0 0 1-4.718888 10.448965s-1.685317 3.033571-2.359443 4.718888l-2.696508 4.718888-1.685317 2.359444-3.033571 5.055951a212.349951 212.349951 0 0 1-12.471346 17.864361c-4.381824 5.730078-9.100712 11.123093-13.8196 16.516107a377.848087 377.848087 0 0 1-31.346897 29.998644c-10.786029 9.100712-22.246185 17.864361-33.706342 26.290946z" fill="#FFFFFF" p-id="1899"/>
  <path d="M646.487628 505.595121c-6.067141-5.393015-12.80841-10.786029-19.212615-15.84198s-12.80841-10.111902-19.549678-14.830791l-10.448965-7.078331-10.448966-6.067142a286.503902 286.503902 0 0 0-44.829434-21.234995 340.096985 340.096985 0 0 0-47.525942-15.504917c-16.179044-4.381824-14.83079-13.145473 2.022381-10.111902a416.273316 416.273316 0 0 1 49.885385 12.808409 347.51238 347.51238 0 0 1 47.863005 19.549678l11.797219 6.067142 11.123093 6.404205a246.393356 246.393356 0 0 1 22.246185 13.8196 241.337404 241.337404 0 0 1 20.560869 16.179044l9.437775 9.100712" fill="#FFFFFF" p-id="1900"/>
  <path d="M545.368604 368.410312a168.531707 168.531707 0 0 1 9.437775 33.706341 158.756868 158.756868 0 0 1 0 35.728722v8.763649a19.886741 19.886741 0 0 0 0 4.718887v4.381825a101.119024 101.119024 0 0 1-5.393014 17.190234 120.668702 120.668702 0 0 1-8.089522 16.179044 118.646322 118.646322 0 0 1-10.111903 15.167853 142.577824 142.577824 0 0 1-11.123092 13.8196l-11.460156 13.145473a326.951512 326.951512 0 0 1-53.593083 46.177688l-14.493727 9.437776-7.752458 4.718888-7.415396 4.044761 13.145474-11.123093 13.482536-11.460156q13.145473-11.123093 25.279756-23.257376c8.426585-8.089522 16.179044-16.516107 23.931503-24.942692l5.730078-6.741269 5.393014-6.404205 10.78603-13.482536a129.095288 129.095288 0 0 0 9.437775-14.156663 109.208546 109.208546 0 0 0 13.145473-30.672771v-4.044761-4.044761a73.142761 73.142761 0 0 0 0-8.426585 163.475756 163.475756 0 0 0 1.685317-33.706342 248.078673 248.078673 0 0 0-3.707697-33.706341z m81.232283 15.167853a47.188878 47.188878 0 0 1 2.02238 13.8196 63.367922 63.367922 0 0 1 0 13.8196v5.730078a39.436419 39.436419 0 0 1-1.685317 6.741268c0 4.381824-2.696507 8.763649-4.044761 13.145474a174.261785 174.261785 0 0 1-12.134283 25.279756 204.934556 204.934556 0 0 1-15.84198 22.246185l-8.763649 10.448966-4.718888 5.055951-4.381824 5.055951c-5.730078 6.741268-11.797219 13.482537-18.201425 19.886742a172.239405 172.239405 0 0 1-21.234995 17.527297 134.825366 134.825366 0 0 1-11.460156 7.752459 131.454731 131.454731 0 0 1-11.797219 6.404205c6.741268-5.730078 13.8196-11.797219 20.223805-17.864361a245.045102 245.045102 0 0 0 18.201424-19.212615c5.730078-6.741268 11.460156-13.482537 16.853171-20.560868a61.682605 61.682605 0 0 0 4.381824-5.393015l4.381824-5.055951 8.426586-10.111903a178.980673 178.980673 0 0 0 15.167853-21.572058 150.667346 150.667346 0 0 0 11.79722-23.257376c1.685317-4.044761 3.033571-8.089522 4.381824-12.471346s0-4.044761 1.685317-6.067141v-3.033571c0-4.044761 2.359444-8.426585 3.370634-12.80841s2.02238-8.426585 3.033571-13.145473z m91.681248 28.313327a114.264497 114.264497 0 0 1-9.774839 31.009834 157.408614 157.408614 0 0 1-17.190234 27.6392 245.382165 245.382165 0 0 1-22.246185 23.594439 123.028146 123.028146 0 0 1-12.134283 10.448966l-6.741268 4.381824a29.66158 29.66158 0 0 1-7.078332 4.044761l4.044761-7.415395a81.90641 81.90641 0 0 1 4.718888-6.741268 89.995932 89.995932 0 0 1 10.448966-12.134283c7.415395-7.415395 14.493727-14.83079 21.572058-22.920312a226.506614 226.506614 0 0 0 18.875551-24.60563c5.730078-8.763649 10.448966-18.201424 15.504917-27.6392z" fill="#FFFFFF" p-id="1901"/>
  <path d="M459.417433 551.772809c4.381824-4.718888 9.100712-9.100712 13.482537-13.145473l14.493727-12.471347c9.437776-7.752459 19.549678-15.504917 29.998643-22.583248a484.697189 484.697189 0 0 1 65.053239-38.42523 498.179726 498.179726 0 0 1 70.109191-26.965073 348.52357 348.52357 0 0 1 36.739912-10.111902l18.201424-3.707698 18.875551-2.696507-17.864361 6.067141-17.527297 6.067142-33.706342 13.145473c-22.920312 9.437776-45.840624 19.212615-67.412682 30.335707l-65.390303 33.706342c-10.448966 6.067141-21.234995 12.80841-31.683961 19.549678s-20.897932 13.482537-31.346897 20.560868z m25.953883-56.28959a285.627537 285.627537 0 0 1 33.369278-35.728722 409.869111 409.869111 0 0 1 38.088166-30.672771 443.238389 443.238389 0 0 1 41.4588-24.605629c7.415395-4.044761 14.493727-7.415395 21.909122-10.786029l11.460156-5.055952 11.460156-4.381824-19.886742 14.493727-19.886741 13.8196-39.436419 25.616819-39.099356 27.976264-19.549678 14.156663-9.774839 7.078332-10.111903 7.078331z m0-67.412683a36.739912 36.739912 0 0 1 2.696507-5.055951 23.931502 23.931502 0 0 0 3.370635-4.718888l7.078331-8.426586a179.317736 179.317736 0 0 1 16.179044-15.84198 145.611395 145.611395 0 0 1 17.864361-13.482537l9.774839-5.730078 5.055951-2.359444 5.055952-2.359443a23.931502 23.931502 0 0 1-3.370635 4.718887l-3.707697 4.381825-7.415395 8.089522-16.179044 15.167853-17.527298 13.482537-9.100712 6.404205-4.718888 3.03357-5.055951 2.696508z" fill="#FFFFFF" p-id="1902"/>
  <path d="M476.607667 362.006107a137.184809 137.184809 0 0 1 10.448966 17.864361l4.044761 9.437775V399.420146a73.479824 73.479824 0 0 1 2.022381 20.897931 51.907766 51.907766 0 0 1-1.685317 10.448966 61.345541 61.345541 0 0 1-3.707698 10.111903c0-3.707698 0-7.078332-1.685317-10.111903v-10.111902a189.429639 189.429639 0 0 0-3.033571-19.212615v-4.718888-4.718888l-2.359444-9.774839c0-6.741268-2.696507-13.145473-3.707697-20.223804z m12.471347 119.657512h11.123092a49.211258 49.211258 0 0 1 10.448966 4.718887 55.2784 55.2784 0 0 1 16.853171 16.179044 57.30078 57.30078 0 0 1 8.763649 21.572059 65.390302 65.390302 0 0 1 0 11.460156v5.730078a31.683961 31.683961 0 0 1 0 5.393015 33.706341 33.706341 0 0 1-2.359444-5.055952l-3.707698-2.359444-4.381824-9.437775a106.174975 106.174975 0 0 0-9.437776-17.190234 170.891151 170.891151 0 0 0-12.134283-15.167854l-7.415395-7.415395-3.707697-3.707698-4.044761-3.707697z m-101.119024 138.870126s-55.2784 37.414039-28.650391 76.850459a141.22957 141.22957 0 0 0 87.636488 52.581892 611.09597 611.09597 0 0 0 119.320449 15.841981s5.055951 0-8.763649-3.707698c0 0-39.436419-5.730078-79.546966-13.8196a235.94439 235.94439 0 0 1-67.412683-24.605629s-70.10919-38.425229-37.414039-80.895219a132.802985 132.802985 0 0 1 28.313327-29.998644" fill="#FFFFFF" p-id="1903"/>
  <path d="M561.884711 765.471013a644.802311 644.802311 0 0 0 40.784673-136.510682 329.985082 329.985082 0 0 0 0-104.489659l10.786029-3.707697a355.601902 355.601902 0 0 1-1.685317 125.050526 389.308243 389.308243 0 0 1-44.49237 119.657512" fill="#FFFFFF" p-id="1904"/>
  <path d="M566.266536 765.471013h-4.044761m-202.238049-101.119024s122.354019-33.706341 158.419805-49.211258a380.544594 380.544594 0 0 0 89.995931-47.525942v7.078332a400.094272 400.094272 0 0 1-120.668702 61.008478s-71.457444 21.572058-127.747034 32.021024z" fill="#FFFFFF" p-id="1905"/>
  <path d="M393.690068 714.574438a786.706008 786.706008 0 0 0 89.321804-144.600205l13.8196-6.404205A259.201765 259.201765 0 0 1 438.182438 666.711433s-31.346898 39.099356-40.110546 51.570702z m149.993219-170.891151a195.159717 195.159717 0 0 1-31.683961 117.298068 596.939306 596.939306 0 0 1-55.615463 87.973551h6.404204a341.108175 341.108175 0 0 0 72.131571-111.230927 237.96677 237.96677 0 0 0 17.864361-96.7372z m-77.187522 205.271619s106.849102-31.346898 116.961005-35.728722v3.370634a471.88878 471.88878 0 0 1-116.961005 33.706342z" fill="#FFFFFF" p-id="1906"/>
  <path d="M587.164467 711.540867A244.708039 244.708039 0 0 1 471.88878 663.677862s-45.166497-33.706341-26.965074-77.861648l-15.167853 3.370634a73.816888 73.816888 0 0 0 21.234995 70.446253 185.384878 185.384878 0 0 0 134.825366 51.907766z m-90.332995-149.319092S512.336389 624.578506 606.714145 640.420487l4.718888-2.022381s-104.489658-33.706341-104.489658-81.569346z" fill="#FFFFFF" p-id="1907"/>
  <path d="M399.420146 718.282135s108.197356-35.728722 132.802985-46.851814a394.364194 394.364194 0 0 0 77.524585-35.728722L606.714145 640.420487a444.24958 444.24958 0 0 1-81.906409 40.784673 891.195667 891.195667 0 0 1-128.421161 39.436419z m154.375043-175.947102a567.951853 567.951853 0 0 0 60.334351 33.706342V573.007804s-52.581893-31.346898-57.30078-33.706342z m15.841981-168.531707a269.650731 269.650731 0 0 1-38.088166-81.906409s-111.905053 37.414039-105.500849 57.30078l13.8196 6.741268h2.359444s-10.786029-10.111902 26.290946-30.335707a452.339102 452.339102 0 0 1 61.008478-27.976263s8.426585 58.986097 28.650391 75.502204z" fill="#FFFFFF" p-id="1908"/>
  <path d="M456.720926 327.625638l27.6392 36.402849h13.482536l-41.121736-40.110546z" fill="#FFFFFF" p-id="1909"/>
  <path d="M543.683287 342.456429s-86.962361-6.067141-83.254663-18.538488h4.381824S539.301462 337.063414 543.683287 337.063414z m-23.931503 23.931502s25.953883-20.560868 26.965074-20.897932v-3.03357a413.239746 413.239746 0 0 1-39.43642 20.223804c-6.067141 1.685317 14.156663 3.707698 14.156663 3.707698z" fill="#FFFFFF" p-id="1910"/>
</svg>