<?xml version="1.0" encoding="utf-8"?>
<svg t="1684316509574" class="icon" viewBox="0 0 1140 1024" version="1.1" p-id="1881" width="222.65625" height="200" xmlns="http://www.w3.org/2000/svg">
  <path d="M 1088.944 1024.107 L 44.047 1024.107 C 19.343 1024.294 -0.783 1004.32 -0.782 979.615 L -0.782 62.128 C -0.782 27.876 26.985 0.109 61.238 0.109 L 866.819 0.109 L 1139.841 253.243 L 1139.841 972.874 C 1139.841 1001.038 1117.108 1023.922 1088.944 1024.107 Z" p-id="1882" style="fill: rgb(75, 75, 75);"/>
  <path d="M878.050193 273.358429l262.5724-20.223805L867.601228 0l-18.538488 244.370975a28.987454 28.987454 0 0 0 28.987453 28.987454z" p-id="1883" style="fill: rgb(45, 45, 45);"/>
  <path d="M896.588681 253.134624h244.033912L867.601228 0v224.14717a28.65039 28.65039 0 0 0 28.987453 28.987454z" p-id="1884" style="fill: rgb(96, 96, 96);"/>
  <g style="" transform="matrix(0.684984, 0, 0, 0.683348, 281.555115, 238.553223)">
    <path d="M 480.551 354.519 C 475.644 354.519 472.316 355.116 468.86 355.927 L 468.86 356.482 L 469.458 356.482 C 471.762 360.919 475.687 364.162 478.588 368.13 C 480.892 372.695 482.855 377.26 485.159 381.783 L 485.756 381.143 C 489.767 378.327 491.73 373.804 491.73 366.935 C 490.023 364.93 489.767 362.924 488.316 360.962 C 486.61 358.103 482.94 356.695 480.636 354.434 L 480.551 354.519 Z M 26.791 917.463 L -12.761 917.463 C -13.873 854.606 -17.717 791.826 -24.281 729.303 L -24.622 729.303 L -84.782 917.463 L -114.862 917.463 L -174.596 729.303 L -175.022 729.303 C -179.694 791.925 -182.469 854.673 -183.342 917.463 L -219.396 917.463 C -217.049 833.58 -211.204 754.903 -201.902 681.516 L -152.836 681.516 L -95.876 854.914 L -95.534 854.914 L -38.062 681.516 L 8.658 681.516 C 18.983 767.49 25.042 846.21 26.919 917.463 L 26.791 917.463 Z M 198.183 743.383 C 182.055 830.636 160.807 894.124 134.524 933.676 C 113.959 964.226 91.431 979.458 66.983 979.458 C 60.455 979.458 52.476 977.495 42.834 973.57 L 42.834 952.492 C 47.527 953.218 53.074 953.602 59.303 953.602 C 70.738 953.602 79.911 950.402 86.908 944.13 C 95.314 936.45 99.495 927.831 99.495 918.316 C 99.495 911.703 96.21 898.263 89.682 878.039 L 46.418 743.383 L 85.244 743.383 L 116.263 844.076 C 123.26 866.946 126.204 882.903 125.01 891.991 C 142.076 846.594 153.938 796.972 160.636 743.383 L 198.183 743.383 Z M 724.05 917.463 L 611.836 917.463 L 611.836 681.516 L 649.596 681.516 L 649.596 888.45 L 724.05 888.45 L 724.05 917.463 Z M 582.396 923.223 L 539.047 901.89 C 542.887 898.647 546.599 895.148 549.927 891.223 C 568.402 869.634 577.575 837.548 577.575 795.095 C 577.575 717.015 546.94 677.932 485.628 677.932 C 455.591 677.932 432.124 687.831 415.228 707.671 C 396.882 729.346 387.666 761.26 387.666 803.458 C 387.666 844.93 395.772 875.394 412.156 894.764 C 427.09 912.258 449.575 921.004 479.698 921.004 C 490.962 921.004 501.287 919.596 510.631 916.823 L 567.164 949.762 L 582.524 923.223 L 582.396 923.223 Z M 441.938 870.231 C 432.338 854.871 427.559 830.124 427.559 796.162 C 427.559 736.727 445.65 706.988 481.746 706.988 C 500.647 706.988 514.599 714.114 523.431 728.322 C 532.988 743.767 537.767 768.258 537.767 801.836 C 537.767 861.74 519.676 891.778 483.58 891.778 C 464.594 891.778 450.727 884.652 441.852 870.444 L 441.938 870.231 Z M 371.196 852.098 C 371.196 872.151 363.858 888.62 349.18 901.42 C 334.503 914.22 314.919 920.62 290.13 920.62 C 266.962 920.62 244.732 913.282 223.015 898.647 L 233.127 878.338 C 251.815 887.724 268.668 892.332 283.9 892.332 C 298.066 892.332 309.202 889.218 317.308 882.946 C 325.527 876.75 330.285 866.996 330.108 856.706 C 330.108 842.626 320.295 830.679 302.46 820.652 C 285.906 811.564 252.839 792.62 252.839 792.62 C 234.834 779.522 225.874 765.484 225.874 742.402 C 225.874 723.202 232.572 707.842 245.927 696.108 C 259.367 684.247 276.647 678.402 297.98 678.402 C 319.826 678.402 339.794 684.204 357.714 695.895 L 348.626 716.204 C 334.307 709.914 318.867 706.577 303.228 706.391 C 291.154 706.391 281.81 709.292 275.324 715.18 C 268.662 720.699 264.787 728.886 264.743 737.538 C 264.743 751.532 274.727 763.564 293.159 773.804 C 309.927 782.978 343.804 802.391 343.804 802.391 C 362.279 815.404 371.452 829.271 371.452 852.226 L 371.196 852.098 Z M 771.495 602.412 C 748.668 601.815 730.962 604.119 716.156 610.434 C 711.89 612.14 705.063 612.14 704.466 617.559 C 706.812 619.82 707.154 623.532 709.159 626.69 C 712.572 632.407 718.46 640.044 723.922 644.055 C 729.895 648.748 735.868 653.271 742.14 657.282 C 753.234 664.108 765.82 668.162 776.7 675.031 C 782.887 679.042 789.202 684.119 795.474 688.386 C 798.588 690.519 800.594 694.359 804.604 695.724 L 804.604 694.871 C 802.642 692.311 802.044 688.599 800.124 685.74 C 797.266 682.882 794.407 680.322 791.591 677.506 C 783.214 666.466 773.217 656.757 761.938 648.706 C 752.807 642.476 732.839 633.772 729.084 623.319 L 728.53 622.722 C 734.759 622.167 742.183 619.906 748.156 618.199 C 757.842 615.639 766.716 616.194 776.743 613.676 C 781.266 612.524 785.831 611.116 790.396 609.666 L 790.396 607.106 C 785.276 601.986 781.436 595.031 776.146 590.252 C 761.378 577.344 745.63 565.604 729.042 555.138 C 720.082 549.42 708.732 545.751 699.303 540.887 C 695.89 539.18 690.172 538.327 688.21 535.468 C 683.09 529.239 680.103 520.962 676.476 513.538 C 668.098 497.285 660.314 480.734 653.138 463.916 C 648.018 452.738 644.903 441.602 638.631 431.362 C 609.191 382.85 577.319 353.452 528.295 324.695 C 517.756 318.722 505.127 316.162 491.772 313.004 C 484.647 312.663 477.522 312.151 470.439 311.852 C 465.746 309.847 461.223 304.428 457.212 301.826 C 440.999 291.586 399.015 269.399 387.068 298.754 C 379.388 317.271 398.46 335.532 405.074 344.919 C 409.98 351.447 416.167 358.914 419.58 366.252 C 421.586 371.202 422.14 376.279 424.146 381.442 C 428.668 393.986 432.978 407.98 438.951 419.714 C 442.066 425.687 445.479 431.959 449.49 437.335 C 451.794 440.45 455.719 441.9 456.615 447.02 C 452.604 452.823 452.348 461.271 450.044 468.354 C 439.804 500.652 443.815 540.588 458.322 564.354 C 462.887 571.436 473.767 587.138 488.316 581.122 C 501.116 576.002 498.3 559.788 501.97 545.495 C 502.823 542.082 502.268 539.82 504.018 537.516 L 504.018 538.156 C 508.028 546.178 512.039 553.815 515.708 561.836 C 524.498 575.831 539.858 590.338 552.7 600.023 C 559.527 605.143 564.946 614.018 573.479 617.175 L 573.479 616.322 L 572.839 616.322 C 571.004 613.847 568.572 612.652 566.268 610.647 C 560.859 605.351 555.866 599.645 551.335 593.58 C 539.314 577.154 528.654 559.774 519.463 541.612 C 514.77 532.652 510.844 523.01 507.09 514.178 C 505.383 510.764 505.383 505.644 502.524 503.938 C 498.258 510.167 491.986 515.586 488.871 523.266 C 483.452 535.554 482.898 550.658 480.85 566.359 C 479.698 566.658 480.252 566.359 479.698 566.956 C 470.567 564.738 467.452 555.266 464.039 547.33 C 455.506 527.063 454.098 494.508 461.479 471.17 C 463.484 465.196 472.018 446.338 468.604 440.62 C 466.812 435.202 461.18 432.087 458.066 427.692 C 454.059 421.972 450.629 415.87 447.826 409.474 C 440.999 393.516 437.586 375.852 430.162 359.895 C 426.748 352.514 420.775 344.791 415.911 338.007 C 410.492 330.327 404.519 324.908 400.21 315.82 C 398.802 312.706 396.796 307.543 399.058 304.13 C 399.655 301.826 400.85 300.93 403.068 300.29 C 406.823 297.218 417.362 301.228 421.074 302.935 C 431.612 307.202 440.487 311.212 449.319 317.186 C 453.33 320.002 457.639 325.42 462.759 326.828 L 468.732 326.828 C 477.863 328.834 488.146 327.426 496.679 329.943 C 511.826 334.807 525.479 341.89 537.724 349.57 C 575.456 373.673 606.146 407.321 626.684 447.106 C 630.098 453.676 631.591 459.692 634.706 466.519 C 640.679 480.599 648.06 494.807 654.119 508.418 C 660.092 521.858 665.852 535.554 674.428 546.69 C 678.695 552.663 695.847 555.778 703.527 558.892 C 709.202 561.452 718.034 563.799 723.154 566.914 C 732.967 572.887 742.524 579.714 751.74 586.284 C 756.434 589.527 770.642 596.652 771.495 602.412 L 771.495 602.412 Z" p-id="8403" style="fill: rgb(255, 255, 255);"/>
  </g>
</svg>