<?xml version="1.0" encoding="utf-8"?>
<svg viewBox="0 0 1140 1024" xmlns="http://www.w3.org/2000/svg">
  <path d="M1089.726017 1023.998652h-1044.896583A44.492371 44.492371 0 0 1 0 979.506281V62.019668A62.019668 62.019668 0 0 1 62.019668 0h805.58156l273.021365 253.134624v719.630389a51.233639 51.233639 0 0 1-50.896576 51.233639z" p-id="3303" style="fill: rgb(190, 63, 63);"/>
  <path d="M878.050193 273.358429l262.5724-20.223805L867.601228 0l-18.538488 244.370975a28.987454 28.987454 0 0 0 28.987453 28.987454z" p-id="3304" style="fill: rgb(131, 11, 11);"/>
  <path d="M896.588681 253.134624h244.033912L867.601228 0v224.14717a28.65039 28.65039 0 0 0 28.987453 28.987454z" p-id="3305" style="fill: rgb(255, 53, 53);"/>
  <g transform="matrix(0.62894, 0, 0, 0.645235, -707.17749, 227.617249)" style="">
    <path d="M 1350.344 898.959 L 1464.151 150.697 L 1608.046 382.236 L 1665.07 268.329 L 2010.952 900.265 L 1350.344 898.959 Z" p-id="2407" fill="#FFA712"/>
    <g transform="matrix(1, 0, 0, 1, 5.709546, 2.865838)">
      <g transform="matrix(1, 0, 0, 1, 661.239502, 95.369324)">
        <path d="M 998.338 973.12 L 1343.682 800.448 L 1224.642 224.883 L 683.074 799.142 L 998.338 973.12 Z" p-id="2408" fill="#FCCA3F"/>
      </g>
      <path d="M 1605.231 373.302 L 1347.541 890.013 L 1696.597 519.888 L 1605.231 373.302 Z" p-id="2409" fill="#F6820C"/>
    </g>
  </g>
</svg>