<?xml version="1.0" encoding="utf-8"?>
<svg t="1684316509574" class="icon" viewBox="0 0 1140 1024" version="1.1" p-id="1881" width="222.65625" height="200" xmlns="http://www.w3.org/2000/svg">
  <path d="M 1088.944 1024.107 L 44.047 1024.107 C 19.343 1024.294 -0.783 1004.32 -0.782 979.615 L -0.782 62.128 C -0.782 27.876 26.985 0.109 61.238 0.109 L 866.819 0.109 L 1139.841 253.243 L 1139.841 972.874 C 1139.841 1001.038 1117.108 1023.922 1088.944 1024.107 Z" p-id="1882" style="fill: rgb(208, 217, 222);"/>
  <path d="M878.050193 273.358429l262.5724-20.223805L867.601228 0l-18.538488 244.370975a28.987454 28.987454 0 0 0 28.987453 28.987454z" p-id="1883" style="fill: rgb(124, 128, 130);"/>
  <path d="M896.588681 253.134624h244.033912L867.601228 0v224.14717a28.65039 28.65039 0 0 0 28.987453 28.987454z" p-id="1884" style="fill: rgb(237, 241, 244);"/>
  <g style="" transform="matrix(0.638523, 0, 0, 0.628573, -223.80188, 181.117493)">
    <path d="M 981.909 561.072 C 1030.037 614.32 968.597 664.496 968.597 664.496 C 968.597 664.496 1088.405 603.056 1034.133 525.232 C 982.933 453.552 942.997 417.712 1157.013 292.784 C 1157.013 293.808 821.141 378.8 981.909 561.072" fill="#FF0000" p-id="14365"/>
    <path d="M 1034.133 94.128 C 1034.133 94.128 1135.509 195.504 937.877 352.176 C 780.181 478.128 902.037 549.808 937.877 632.752 C 844.693 548.784 778.133 475.056 823.189 406.448 C 887.701 305.072 1075.093 255.92 1034.133 94.128" fill="#FF0000" p-id="14366"/>
    <path d="M 1144.725 846.768 C 1328.021 751.536 1243.029 658.352 1184.661 671.664 C 1169.301 674.736 1163.157 676.784 1163.157 676.784 C 1163.157 676.784 1168.277 668.592 1179.541 665.52 C 1297.301 624.56 1387.413 786.352 1141.653 851.888 C 1140.629 851.888 1143.701 848.816 1144.725 846.768 M 806.805 885.68 C 806.805 885.68 768.917 907.184 833.429 915.376 C 910.229 923.568 951.189 923.568 1036.181 907.184 C 1036.181 907.184 1059.733 922.544 1089.429 933.808 C 897.941 1014.704 656.277 928.688 806.805 885.68 M 783.253 779.184 C 783.253 779.184 740.245 810.928 806.805 817.072 C 889.749 825.264 956.309 827.312 1067.925 803.76 C 1067.925 803.76 1084.309 820.144 1108.885 828.336 C 877.461 896.944 618.389 833.456 783.253 779.184" fill="#6699FF" p-id="14367"/>
    <path d="M 1234.837 965.552 C 1234.837 965.552 1262.485 989.104 1203.093 1006.512 C 1091.477 1041.328 742.293 1051.568 645.013 1008.56 C 610.197 993.2 676.757 972.72 696.213 967.6 C 717.717 962.48 731.029 964.528 731.029 964.528 C 692.117 935.856 479.125 1016.752 623.509 1040.304 C 1013.653 1102.768 1336.213 1011.632 1234.837 965.552 M 824.213 667.568 C 824.213 667.568 646.037 710.576 760.725 723.888 C 809.877 730.032 907.157 729.008 996.245 720.816 C 1069.973 714.672 1143.701 701.36 1143.701 701.36 C 1143.701 701.36 1117.077 712.624 1098.645 725.936 C 917.397 774.064 568.213 752.56 668.565 702.384 C 756.629 662.448 824.213 667.568 824.213 667.568" fill="#6699FF" p-id="14368"/>
    <path d="M 842.645 1104.816 C 1018.773 1116.08 1289.109 1098.672 1296.277 1014.704 C 1296.277 1014.704 1282.965 1046.448 1149.845 1071.024 C 999.317 1098.672 812.949 1095.6 703.381 1077.168 C 705.429 1078.192 727.957 1097.648 842.645 1104.816" fill="#6699FF" p-id="14369"/>
  </g>
</svg>