<?xml version="1.0" encoding="utf-8"?>
<svg t="1684316509574" class="icon" viewBox="0 0 1140 1024" version="1.1" p-id="1881" width="222.65625" height="200" xmlns="http://www.w3.org/2000/svg">
  <path d="M1089.726017 1023.998652h-1044.896583A44.492371 44.492371 0 0 1 0 979.506281V62.019668A62.019668 62.019668 0 0 1 62.019668 0h805.58156l273.021365 253.134624v719.630389a51.233639 51.233639 0 0 1-50.896576 51.233639z" p-id="1882" style="fill: rgb(5, 234, 255);"/>
  <path d="M878.050193 273.358429l262.5724-20.223805L867.601228 0l-18.538488 244.370975a28.987454 28.987454 0 0 0 28.987453 28.987454z" fill="#0997C9" p-id="1883"/>
  <path d="M896.588681 253.134624h244.033912L867.601228 0v224.14717a28.65039 28.65039 0 0 0 28.987453 28.987454z" p-id="1884" style="fill: rgb(43, 199, 255);"/>
  <text style="fill: rgb(255, 255, 255); font-size: 700px; white-space: pre;" transform="matrix(0.682055, 0, 0, 0.609599, -192.894318, 633.688965)"><tspan x="412.578" y="397.758">{ } </tspan><tspan x="412.5780029296875" dy="1em">​</tspan></text>
  <text style="white-space: pre; fill: rgb(255, 255, 255); font-size: 19px;" x="1502.983" y="315.832">.csv
</text>
</svg>