<?xml version="1.0" encoding="utf-8"?>
<svg viewBox="0 0 1140 1024" xmlns="http://www.w3.org/2000/svg">
  <path d="M1089.726017 1023.998652h-1044.896583A44.492371 44.492371 0 0 1 0 979.506281V62.019668A62.019668 62.019668 0 0 1 62.019668 0h805.58156l273.021365 253.134624v719.630389a51.233639 51.233639 0 0 1-50.896576 51.233639z" p-id="3303" style="fill: rgb(32, 87, 181);"/>
  <path d="M878.050193 273.358429l262.5724-20.223805L867.601228 0l-18.538488 244.370975a28.987454 28.987454 0 0 0 28.987453 28.987454z" p-id="3304" style="fill: rgb(21, 58, 122);"/>
  <path d="M896.588681 253.134624h244.033912L867.601228 0v224.14717a28.65039 28.65039 0 0 0 28.987453 28.987454z" p-id="3305" style="fill: rgb(47, 122, 251);"/>
  <path d="M 144.444 631.078 L 144.444 885.893 L 667.447 885.893 L 667.447 376.263 L 144.444 376.263 L 144.444 631.078 Z M 565.919 610.778 C 579.212 614.005 589.323 619.76 598.628 629.146 C 603.444 634.158 610.591 643.288 611.159 645.497 C 611.333 646.133 588.581 660.997 574.809 669.342 C 574.309 669.661 572.303 667.559 570.081 664.331 C 563.325 654.775 556.286 650.656 545.5 649.934 C 529.636 648.873 519.437 656.963 519.524 670.468 C 519.379 673.789 520.146 677.088 521.747 680.023 C 525.232 687.052 531.727 691.278 552.037 699.836 C 589.497 715.549 605.513 725.89 615.473 740.607 C 626.587 757.02 629.093 783.245 621.531 802.739 C 613.249 823.931 592.657 838.328 563.673 843.084 C 554.717 844.634 533.471 844.4 523.839 842.702 C 502.831 839.049 482.914 828.942 470.623 815.671 C 465.807 810.51 456.415 796.984 457.003 796.029 C 458.514 794.902 460.118 793.901 461.798 793.034 C 464.151 791.738 472.932 786.791 481.236 782.098 L 496.272 773.605 L 499.431 778.148 C 503.835 784.689 513.444 793.671 519.263 796.665 C 535.955 805.245 558.858 804.034 570.146 794.159 C 574.747 790.383 577.271 784.726 576.967 778.871 C 576.967 772.968 576.204 770.377 573.044 765.917 C 568.991 760.269 560.689 755.513 537.11 745.532 C 510.131 734.215 498.516 727.186 487.882 716.017 C 481.244 708.645 476.344 699.948 473.522 690.535 C 471.539 683.337 471.036 665.287 472.606 658.025 C 478.163 632.607 497.841 614.92 526.236 609.653 C 535.453 607.953 556.875 608.591 565.919 610.778 Z M 443.144 632.055 L 443.318 652.928 L 375.219 652.928 L 375.219 841.406 L 327.059 841.406 L 327.059 652.928 L 259.025 652.928 L 259.025 632.458 C 259.025 621.119 259.264 611.649 259.592 611.436 C 259.854 611.095 301.279 610.926 351.487 611.012 L 442.903 611.266 L 443.144 632.055 Z" p-id="10245" style="fill: rgb(252, 252, 252);"/>
</svg>